# xmcd CD database file
#
# Track frame offsets:
#	150
#	25700
#	55900
#	91225
#	122700
#	148925
#	174037
#	194612
#	221800
#	265700
#
# Disc length: 4077 seconds
#
# Revision: 2
# Processed by: cddbd v1.4PL0 Copyright (c) Steve Scherf et al.
# Submitted via: CDex 1.40Beta9
#
DISCID=8c0feb0a
DTITLE=Sounds Like House - Sounds Like House CD2
DYEAR=1994
DGENRE=House
TTITLE0=Collision Sound System feat. Bianca - Loose control
TTITLE1=Ego Zero - One nation
TTITLE2=Mijk´s Magic Marble Box - Autumn
TTITLE3=Movin Melodies - P.A.R.T.Y.
TTITLE4=House II House - Did you ever ask me
TTITLE5=Remy and Seven - Piano power
TTITLE6=Simple Symphonies - Accousic elements
TTITLE7=Ultracynic - Got to have it
TTITLE8=Solar Eclipse - Human world
TTITLE9=Centipide Experimental Sequences - Reinforcement for the big crusade
EXTD=YEAR: 1994 ID3G: 35
EXTT0=
EXTT1=
EXTT2=
EXTT3=
EXTT4=
EXTT5=
EXTT6=
EXTT7=
EXTT8=
EXTT9=
PLAYORDER=
